# xmcd
#
# Track frame offsets:
#	225
#	10240
#	24098
#	36240
#	48411
#	59775
#	72674
#	89288
#	111359
#	127664
#	136586
#	149858
#	165108
#	179280
#	190161
#
# Disc length: 2663 seconds
#
# Revision: 1
# Processed by: cddbd v1.5.2PL0 Copyright (c) Steve Scherf et al.
# Submitted via: audiograbber 1.83.01
#
DISCID=ce0a640f
DTITLE=Duets - Precious Memories
DYEAR=1900
DGENRE=Irish
TTITLE0=Achill in Mayo
TTITLE1=Dont Take Advantage of Me
TTITLE2=lets go all the way
TTITLE3=Back Together Always
TTITLE4=Good old Country Song
TTITLE5=Just one Time
TTITLE6=Leave a Light on for Me
TTITLE7=If i had my life to live over
TTITLE8=A Loved one's Goodbye
TTITLE9=If Teardrops were pennies
TTITLE10=Down by the old River
TTITLE11=Bright Silvery Light of the Moon
TTITLE12=Offaly My County My Home
TTITLE13=Little Bit Longer
TTITLE14=Geisha Girl
EXTD=
EXTT0=
EXTT1=
EXTT2=
EXTT3=
EXTT4=
EXTT5=
EXTT6=
EXTT7=
EXTT8=
EXTT9=
EXTT10=
EXTT11=
EXTT12=
EXTT13=
EXTT14=
PLAYORDER=
